<?xml version="1.0" encoding="UTF-8"?>
<svg version="1.1" xmlns="http://www.w3.org/2000/svg" width="512" height="512">
<path d="M0 0 C12.32764329 8.01991609 20.34810032 18.98789608 24.171875 33.3515625 C25.95776026 45.74560618 25.64645537 59.28930268 19.23828125 70.34765625 C15.73194433 73.93572597 10.3584827 73.2544987 5.61865234 73.35375977 C-6.8175548 73.45228007 -18.58809845 72.01230052 -30.4375 68.0625 C-30.25203275 70.02111939 -30.25203275 70.02111939 -29.4375 72.0625 C-27.63953581 73.20667875 -27.63953581 73.20667875 -25.34375 73.88671875 C-24.4868457 74.18803711 -23.62994141 74.48935547 -22.74707031 74.79980469 C-21.81991211 75.11336914 -20.89275391 75.42693359 -19.9375 75.75 C-3.75561752 81.59391483 10.0163205 89.52852441 23.81201172 99.76855469 C25.21545997 100.80597111 26.6380035 101.81753366 28.06640625 102.8203125 C61.24792217 126.87218932 81.11109142 167.15559561 88.04125977 206.70751953 C92.56082967 235.70739691 89.75863735 266.03779448 78.875 293.35546875 C77.33400534 297.66352419 77.33400534 297.66352419 77.5625 302.0625 C79.17662009 304.10233037 80.69209525 305.75306889 82.56640625 307.51953125 C83.08250961 308.0261882 83.59861298 308.53284515 84.13035583 309.05485535 C85.78383044 310.67378953 87.45342965 312.27477569 89.125 313.875 C91.29759065 315.98094873 93.46393397 318.09325386 95.62890625 320.20703125 C96.15006012 320.71477081 96.67121399 321.22251038 97.2081604 321.74563599 C109.04044137 333.33350975 109.04044137 333.33350975 110 340.1875 C109.38283307 345.65383569 106.86738649 348.78515797 103.5625 353.0625 C103.02109375 353.82691406 102.4796875 354.59132813 101.921875 355.37890625 C99.03977346 359.14314635 96.94651244 361.47053353 92.125 362.125 C84.65515998 362.47935674 79.05499096 361.24552128 72.7265625 357.28125 C72.12113617 356.90770386 71.51570984 356.53415771 70.89193726 356.14929199 C68.98189085 354.96683968 67.08474516 353.76536019 65.1875 352.5625 C63.89275173 351.75518637 62.59718474 350.94918421 61.30078125 350.14453125 C58.9394575 348.67801323 56.58457923 347.20281026 54.23291016 345.72070312 C51.7144802 344.10019535 51.7144802 344.10019535 49.5625 343.0625 C48.97855469 343.75472656 48.97855469 343.75472656 48.3828125 344.4609375 C44.85608032 348.57274968 41.21126001 352.55075317 37.4375 356.4375 C36.63054687 357.27023437 35.82359375 358.10296875 34.9921875 358.9609375 C32.51154498 361.10657364 30.58390945 361.89008192 27.5625 363.0625 C25.65125762 364.49453058 23.78012091 365.98068857 21.9375 367.5 C0.170369 384.72742808 -31.22395722 399.38815474 -59.4375 399.0625 C-59.37691406 399.75174561 -59.31632812 400.44099121 -59.25390625 401.15112305 C-56.201884 436.2875292 -56.201884 436.2875292 -60.4375 442.0625 C-66.03064123 447.45809099 -76.02062932 448.1730778 -83.5 448.4375 C-87.60775261 448.04628547 -89.18283316 447.47008432 -92.4375 445.0625 C-93.87451172 442.78295898 -93.87451172 442.78295898 -94.9921875 440.12109375 C-95.40436523 439.14124512 -95.81654297 438.16139648 -96.24121094 437.15185547 C-98.16342923 432.18782479 -99.90971078 427.18462549 -101.5625 422.125 C-101.89636719 421.13048828 -102.23023438 420.13597656 -102.57421875 419.11132812 C-104.86884568 412.16895683 -106.75645179 405.17735898 -108.4375 398.0625 C-109.19345459 397.9608252 -109.94940918 397.85915039 -110.72827148 397.75439453 C-136.42779645 394.15548836 -161.2814023 382.14152876 -181.55859375 366.203125 C-183.78928485 364.54448359 -185.94449276 363.14449779 -188.32421875 361.734375 C-192.71631394 359.02723875 -196.2179053 355.74072307 -199.8125 352.0625 C-200.46387939 351.39951904 -201.11525879 350.73653809 -201.78637695 350.0534668 C-231.70659424 319.12740362 -247.64372381 277.01161573 -247.6875 234.25 C-247.68850708 233.56574951 -247.68951416 232.88149902 -247.69055176 232.17651367 C-247.67368975 215.17366176 -245.2980468 199.34656542 -240.4375 183.0625 C-242.4175 182.7325 -244.3975 182.4025 -246.4375 182.0625 C-246.86160156 183.07828125 -247.28570312 184.0940625 -247.72265625 185.140625 C-251.38944734 193.80355105 -255.18328728 202.21973385 -260.4375 210.0625 C-261.43716797 211.56296875 -261.43716797 211.56296875 -262.45703125 213.09375 C-264.63046452 215.94466787 -266.45710386 218.0663277 -269.4375 220.0625 C-273.82216622 220.53082216 -277.32089166 219.52838731 -281.4375 218.0625 C-282.24574219 217.78148437 -283.05398438 217.50046875 -283.88671875 217.2109375 C-291.68231547 214.08181491 -298.81906214 209.30520873 -304.4375 203.0625 C-305.241875 202.216875 -306.04625 201.37125 -306.875 200.5 C-315.36145739 189.92539221 -319.27855163 176.29137735 -318.17480469 162.84863281 C-316.85824302 151.5522086 -312.98023122 141.62702978 -305.4375 133.0625 C-304.91414063 132.45792969 -304.39078125 131.85335937 -303.8515625 131.23046875 C-295.17844679 121.88549196 -283.47823379 116.6778514 -270.82421875 115.90234375 C-263.26196844 115.67675133 -256.63401433 116.76910532 -249.4375 119.0625 C-248.5403125 119.3409375 -247.643125 119.619375 -246.71875 119.90625 C-242.08404156 121.60759867 -242.08404156 121.60759867 -240.4375 123.0625 C-236.62692657 138.81973608 -239.48720461 156.64484226 -243.4375 172.0625 C-241.1275 172.7225 -238.8175 173.3825 -236.4375 174.0625 C-236.355 173.42183594 -236.2725 172.78117188 -236.1875 172.12109375 C-231.59708663 153.40081425 -218.33406087 136.73180261 -206.4375 122.0625 C-205.71175781 121.10472656 -204.98601562 120.14695312 -204.23828125 119.16015625 C-203.64402344 118.46792969 -203.04976563 117.77570313 -202.4375 117.0625 C-201.7775 117.0625 -201.1175 117.0625 -200.4375 117.0625 C-199.9425 115.5775 -199.9425 115.5775 -199.4375 114.0625 C-198.7775 114.0625 -198.1175 114.0625 -197.4375 114.0625 C-196.9425 112.5775 -196.9425 112.5775 -196.4375 111.0625 C-191.03319075 105.97043973 -184.71440061 101.73277203 -178.75 97.3125 C-177.82453369 96.62317383 -177.82453369 96.62317383 -176.88037109 95.91992188 C-166.16648472 88.0625 -166.16648472 88.0625 -162.4375 88.0625 C-162.870625 87.21945313 -163.30375 86.37640625 -163.75 85.5078125 C-164.306875 84.41210938 -164.86375 83.31640625 -165.4375 82.1875 C-165.994375 81.09695312 -166.55125 80.00640625 -167.125 78.8828125 C-168.4375 76.0625 -168.4375 76.0625 -168.4375 74.0625 C-169.29472656 74.57941406 -170.15195313 75.09632812 -171.03515625 75.62890625 C-172.17855469 76.28761719 -173.32195312 76.94632812 -174.5 77.625 C-175.62535156 78.28628906 -176.75070313 78.94757813 -177.91015625 79.62890625 C-182.00999659 81.2951758 -184.19373039 81.14944589 -188.4375 80.0625 C-191.24368215 77.70892787 -191.41668231 76.2082238 -191.9375 72.5625 C-191.4375 69.0625 -191.4375 69.0625 -189.29052734 67.05078125 C-186.3726633 65.01731515 -183.45756062 63.36385894 -180.2890625 61.75 C-179.11859375 61.14929688 -177.948125 60.54859375 -176.7421875 59.9296875 C-175.51577058 59.30700485 -174.28920697 58.68461104 -173.0625 58.0625 C-170.65760813 56.8357493 -168.25452701 55.60552908 -165.8515625 54.375 C-164.72943359 53.80257568 -163.60730469 53.23015137 -162.45117188 52.64038086 C-160.02182518 51.36843759 -157.66737982 50.04344456 -155.3203125 48.62890625 C-152.4375 47.0625 -152.4375 47.0625 -148.6875 47 C-145.4375 48.0625 -145.4375 48.0625 -143.5 50.25 C-142.25438571 53.5472143 -141.8436416 55.5735819 -142.4375 59.0625 C-146.23187101 63.10166914 -151.57724246 65.47883368 -156.4375 68.0625 C-155.20714855 72.13212402 -153.64773519 75.44575151 -151.4375 79.0625 C-151.4375 79.7225 -151.4375 80.3825 -151.4375 81.0625 C-150.40753906 80.61519531 -149.37757813 80.16789062 -148.31640625 79.70703125 C-114.38454364 65.20389642 -77.66545567 60.74788722 -41.4375 69.0625 C-41.1075 67.7425 -40.7775 66.4225 -40.4375 65.0625 C-40.95546143 64.83175781 -41.47342285 64.60101563 -42.00708008 64.36328125 C-52.2654469 59.75492825 -61.69053849 55.21219028 -70.4375 48.0625 C-71.16839844 47.53914063 -71.89929688 47.01578125 -72.65234375 46.4765625 C-75.92727323 44.02522914 -77.27104652 42.92805811 -78.0625 38.8125 C-75.45592576 23.17305455 -68.37426196 10.68125607 -55.5 1.1875 C-38.58751858 -9.99953919 -17.47323186 -10.0477574 0 0 Z " fill="#F1F0F0" transform="translate(334.4375,22.9375)"/>
<path d="M0 0 C12.32764329 8.01991609 20.34810032 18.98789608 24.171875 33.3515625 C25.95776026 45.74560618 25.64645537 59.28930268 19.23828125 70.34765625 C15.73194433 73.93572597 10.3584827 73.2544987 5.61865234 73.35375977 C-6.8175548 73.45228007 -18.58809845 72.01230052 -30.4375 68.0625 C-30.25203275 70.02111939 -30.25203275 70.02111939 -29.4375 72.0625 C-27.63953581 73.20667875 -27.63953581 73.20667875 -25.34375 73.88671875 C-24.4868457 74.18803711 -23.62994141 74.48935547 -22.74707031 74.79980469 C-21.81991211 75.11336914 -20.89275391 75.42693359 -19.9375 75.75 C-3.75561752 81.59391483 10.0163205 89.52852441 23.81201172 99.76855469 C25.21545997 100.80597111 26.6380035 101.81753366 28.06640625 102.8203125 C61.24792217 126.87218932 81.11109142 167.15559561 88.04125977 206.70751953 C92.56082967 235.70739691 89.75863735 266.03779448 78.875 293.35546875 C77.33400534 297.66352419 77.33400534 297.66352419 77.5625 302.0625 C79.17662009 304.10233037 80.69209525 305.75306889 82.56640625 307.51953125 C83.08250961 308.0261882 83.59861298 308.53284515 84.13035583 309.05485535 C85.78383044 310.67378953 87.45342965 312.27477569 89.125 313.875 C91.29759065 315.98094873 93.46393397 318.09325386 95.62890625 320.20703125 C96.15006012 320.71477081 96.67121399 321.22251038 97.2081604 321.74563599 C109.04044137 333.33350975 109.04044137 333.33350975 110 340.1875 C109.38283307 345.65383569 106.86738649 348.78515797 103.5625 353.0625 C103.02109375 353.82691406 102.4796875 354.59132813 101.921875 355.37890625 C99.03977346 359.14314635 96.94651244 361.47053353 92.125 362.125 C84.65515998 362.47935674 79.05499096 361.24552128 72.7265625 357.28125 C72.12113617 356.90770386 71.51570984 356.53415771 70.89193726 356.14929199 C68.98189085 354.96683968 67.08474516 353.76536019 65.1875 352.5625 C63.89275173 351.75518637 62.59718474 350.94918421 61.30078125 350.14453125 C58.9394575 348.67801323 56.58457923 347.20281026 54.23291016 345.72070312 C51.7144802 344.10019535 51.7144802 344.10019535 49.5625 343.0625 C48.97855469 343.75472656 48.97855469 343.75472656 48.3828125 344.4609375 C44.85608032 348.57274968 41.21126001 352.55075317 37.4375 356.4375 C36.63054687 357.27023437 35.82359375 358.10296875 34.9921875 358.9609375 C32.51154498 361.10657364 30.58390945 361.89008192 27.5625 363.0625 C25.65125762 364.49453058 23.78012091 365.98068857 21.9375 367.5 C0.170369 384.72742808 -31.22395722 399.38815474 -59.4375 399.0625 C-59.37691406 399.75174561 -59.31632812 400.44099121 -59.25390625 401.15112305 C-56.201884 436.2875292 -56.201884 436.2875292 -60.4375 442.0625 C-66.03064123 447.45809099 -76.02062932 448.1730778 -83.5 448.4375 C-87.60775261 448.04628547 -89.18283316 447.47008432 -92.4375 445.0625 C-93.87451172 442.78295898 -93.87451172 442.78295898 -94.9921875 440.12109375 C-95.40436523 439.14124512 -95.81654297 438.16139648 -96.24121094 437.15185547 C-98.16342923 432.18782479 -99.90971078 427.18462549 -101.5625 422.125 C-101.89636719 421.13048828 -102.23023438 420.13597656 -102.57421875 419.11132812 C-104.86884568 412.16895683 -106.75645179 405.17735898 -108.4375 398.0625 C-109.19345459 397.9608252 -109.94940918 397.85915039 -110.72827148 397.75439453 C-136.42779645 394.15548836 -161.2814023 382.14152876 -181.55859375 366.203125 C-183.78928485 364.54448359 -185.94449276 363.14449779 -188.32421875 361.734375 C-192.71631394 359.02723875 -196.2179053 355.74072307 -199.8125 352.0625 C-200.46387939 351.39951904 -201.11525879 350.73653809 -201.78637695 350.0534668 C-231.70659424 319.12740362 -247.64372381 277.01161573 -247.6875 234.25 C-247.68850708 233.56574951 -247.68951416 232.88149902 -247.69055176 232.17651367 C-247.67368975 215.17366176 -245.2980468 199.34656542 -240.4375 183.0625 C-242.4175 182.7325 -244.3975 182.4025 -246.4375 182.0625 C-246.86160156 183.07828125 -247.28570312 184.0940625 -247.72265625 185.140625 C-251.38944734 193.80355105 -255.18328728 202.21973385 -260.4375 210.0625 C-261.43716797 211.56296875 -261.43716797 211.56296875 -262.45703125 213.09375 C-264.63046452 215.94466787 -266.45710386 218.0663277 -269.4375 220.0625 C-273.82216622 220.53082216 -277.32089166 219.52838731 -281.4375 218.0625 C-282.24574219 217.78148437 -283.05398438 217.50046875 -283.88671875 217.2109375 C-291.68231547 214.08181491 -298.81906214 209.30520873 -304.4375 203.0625 C-305.241875 202.216875 -306.04625 201.37125 -306.875 200.5 C-315.36145739 189.92539221 -319.27855163 176.29137735 -318.17480469 162.84863281 C-316.85824302 151.5522086 -312.98023122 141.62702978 -305.4375 133.0625 C-304.91414063 132.45792969 -304.39078125 131.85335937 -303.8515625 131.23046875 C-295.17844679 121.88549196 -283.47823379 116.6778514 -270.82421875 115.90234375 C-263.26196844 115.67675133 -256.63401433 116.76910532 -249.4375 119.0625 C-248.5403125 119.3409375 -247.643125 119.619375 -246.71875 119.90625 C-242.08404156 121.60759867 -242.08404156 121.60759867 -240.4375 123.0625 C-236.62692657 138.81973608 -239.48720461 156.64484226 -243.4375 172.0625 C-241.1275 172.7225 -238.8175 173.3825 -236.4375 174.0625 C-236.355 173.42183594 -236.2725 172.78117188 -236.1875 172.12109375 C-231.59708663 153.40081425 -218.33406087 136.73180261 -206.4375 122.0625 C-205.71175781 121.10472656 -204.98601562 120.14695312 -204.23828125 119.16015625 C-203.64402344 118.46792969 -203.04976563 117.77570313 -202.4375 117.0625 C-201.7775 117.0625 -201.1175 117.0625 -200.4375 117.0625 C-199.9425 115.5775 -199.9425 115.5775 -199.4375 114.0625 C-198.7775 114.0625 -198.1175 114.0625 -197.4375 114.0625 C-196.9425 112.5775 -196.9425 112.5775 -196.4375 111.0625 C-191.03319075 105.97043973 -184.71440061 101.73277203 -178.75 97.3125 C-177.82453369 96.62317383 -177.82453369 96.62317383 -176.88037109 95.91992188 C-166.16648472 88.0625 -166.16648472 88.0625 -162.4375 88.0625 C-162.870625 87.21945313 -163.30375 86.37640625 -163.75 85.5078125 C-164.306875 84.41210938 -164.86375 83.31640625 -165.4375 82.1875 C-165.994375 81.09695312 -166.55125 80.00640625 -167.125 78.8828125 C-168.4375 76.0625 -168.4375 76.0625 -168.4375 74.0625 C-169.29472656 74.57941406 -170.15195313 75.09632812 -171.03515625 75.62890625 C-172.17855469 76.28761719 -173.32195312 76.94632812 -174.5 77.625 C-175.62535156 78.28628906 -176.75070313 78.94757813 -177.91015625 79.62890625 C-182.00999659 81.2951758 -184.19373039 81.14944589 -188.4375 80.0625 C-191.24368215 77.70892787 -191.41668231 76.2082238 -191.9375 72.5625 C-191.4375 69.0625 -191.4375 69.0625 -189.29052734 67.05078125 C-186.3726633 65.01731515 -183.45756062 63.36385894 -180.2890625 61.75 C-179.11859375 61.14929688 -177.948125 60.54859375 -176.7421875 59.9296875 C-175.51577058 59.30700485 -174.28920697 58.68461104 -173.0625 58.0625 C-170.65760813 56.8357493 -168.25452701 55.60552908 -165.8515625 54.375 C-164.72943359 53.80257568 -163.60730469 53.23015137 -162.45117188 52.64038086 C-160.02182518 51.36843759 -157.66737982 50.04344456 -155.3203125 48.62890625 C-152.4375 47.0625 -152.4375 47.0625 -148.6875 47 C-145.4375 48.0625 -145.4375 48.0625 -143.5 50.25 C-142.25438571 53.5472143 -141.8436416 55.5735819 -142.4375 59.0625 C-146.23187101 63.10166914 -151.57724246 65.47883368 -156.4375 68.0625 C-155.20714855 72.13212402 -153.64773519 75.44575151 -151.4375 79.0625 C-151.4375 79.7225 -151.4375 80.3825 -151.4375 81.0625 C-150.40753906 80.61519531 -149.37757813 80.16789062 -148.31640625 79.70703125 C-114.38454364 65.20389642 -77.66545567 60.74788722 -41.4375 69.0625 C-41.1075 67.7425 -40.7775 66.4225 -40.4375 65.0625 C-40.95546143 64.83175781 -41.47342285 64.60101563 -42.00708008 64.36328125 C-52.2654469 59.75492825 -61.69053849 55.21219028 -70.4375 48.0625 C-71.16839844 47.53914063 -71.89929688 47.01578125 -72.65234375 46.4765625 C-75.92727323 44.02522914 -77.27104652 42.92805811 -78.0625 38.8125 C-75.45592576 23.17305455 -68.37426196 10.68125607 -55.5 1.1875 C-38.58751858 -9.99953919 -17.47323186 -10.0477574 0 0 Z M-107.49755859 102.65673828 C-109.2700044 103.02746631 -111.05079964 103.35768371 -112.83203125 103.68359375 C-119.25323159 104.95833266 -125.16991061 106.96979369 -131.1875 109.5 C-131.89205322 109.78842773 -132.59660645 110.07685547 -133.32250977 110.37402344 C-137.01531433 111.86252282 -137.01531433 111.86252282 -139.23706055 114.95092773 C-139.58762521 118.64402606 -137.29641606 121.58756881 -135.5 124.6875 C-131.4375 131.84943656 -131.4375 131.84943656 -131.4375 134.0625 C-132.9225 134.5575 -132.9225 134.5575 -134.4375 135.0625 C-134.69273437 134.21429688 -134.94796875 133.36609375 -135.2109375 132.4921875 C-136.52244484 128.82497907 -138.18393123 125.59675443 -140.0625 122.1875 C-141.00996094 120.45886719 -141.00996094 120.45886719 -141.9765625 118.6953125 C-142.45867187 117.82648438 -142.94078125 116.95765625 -143.4375 116.0625 C-151.20119455 119.95910715 -157.86310899 124.39456226 -164.4375 130.0625 C-165.26121094 130.76375 -166.08492187 131.465 -166.93359375 132.1875 C-176.7054507 140.72453571 -184.88006337 149.83668961 -191.4375 161.0625 C-180.61923427 169.63711376 -180.61923427 169.63711376 -168.4375 174.0625 C-168.4375 174.7225 -168.4375 175.3825 -168.4375 176.0625 C-169.12376465 175.66869141 -169.8100293 175.27488281 -170.51708984 174.86914062 C-173.61304477 173.09582633 -176.71270366 171.32909009 -179.8125 169.5625 C-180.89273438 168.94246094 -181.97296875 168.32242188 -183.0859375 167.68359375 C-184.1171875 167.09707031 -185.1484375 166.51054687 -186.2109375 165.90625 C-187.64058838 165.08930664 -187.64058838 165.08930664 -189.09912109 164.25585938 C-191.29685721 162.91097877 -191.29685721 162.91097877 -193.4375 163.0625 C-205.88298865 185.16015651 -212.79776308 206.52385051 -212.4375 232.0625 C-203.71207699 232.19102505 -195.12741301 231.85895684 -186.4375 231.0625 C-186.4375 231.7225 -186.4375 232.3825 -186.4375 233.0625 C-188.37302734 233.04509766 -188.37302734 233.04509766 -190.34765625 233.02734375 C-192.06510271 233.0179588 -193.78255075 233.00885936 -195.5 233 C-196.34755859 232.99162109 -197.19511719 232.98324219 -198.06835938 232.97460938 C-202.9736722 232.95566994 -207.60194755 233.22923655 -212.4375 234.0625 C-213.16758022 254.39658606 -209.037224 273.97521515 -199.4375 292.0625 C-198.34050781 291.50820313 -197.24351562 290.95390625 -196.11328125 290.3828125 C-194.65890813 289.65093442 -193.20447804 288.91916955 -191.75 288.1875 C-190.6681543 287.64029297 -190.6681543 287.64029297 -189.56445312 287.08203125 C-185.90624636 285.2445758 -182.2763305 283.50111498 -178.4375 282.0625 C-178.4375 283.0525 -178.4375 284.0425 -178.4375 285.0625 C-178.94724365 285.31418945 -179.4569873 285.56587891 -179.98217773 285.82519531 C-182.28721382 286.97337217 -184.58094402 288.14254979 -186.875 289.3125 C-187.67744141 289.70824219 -188.47988281 290.10398437 -189.30664062 290.51171875 C-190.07041016 290.90488281 -190.83417969 291.29804688 -191.62109375 291.703125 C-192.68154907 292.23728027 -192.68154907 292.23728027 -193.76342773 292.78222656 C-195.58415104 293.95448751 -195.58415104 293.95448751 -196.26171875 296.02978516 C-196.85957114 302.94328379 -186.70320685 313.60273595 -182.484375 318.671875 C-181.80890625 319.46078125 -181.1334375 320.2496875 -180.4375 321.0625 C-179.76203125 321.87203125 -179.0865625 322.6815625 -178.390625 323.515625 C-174.14523756 328.44275349 -169.59918807 332.87624766 -164.6875 337.125 C-164.14456299 337.60251709 -163.60162598 338.08003418 -163.04223633 338.57202148 C-159.8410796 341.26760299 -157.52820049 342.41571307 -153.4375 343.0625 C-151.28500127 340.29678683 -149.1416821 337.52409503 -147 334.75 C-146.38833984 333.96431641 -145.77667969 333.17863281 -145.14648438 332.36914062 C-144.2715332 331.2331543 -144.2715332 331.2331543 -143.37890625 330.07421875 C-142.83951416 329.37772217 -142.30012207 328.68122559 -141.74438477 327.96362305 C-140.2605236 325.99294474 -140.2605236 325.99294474 -139.4375 323.0625 C-138.7775 323.0625 -138.1175 323.0625 -137.4375 323.0625 C-140.85719118 328.37930557 -144.70823282 333.23765883 -148.72265625 338.11523438 C-151.71691758 341.63595084 -151.71691758 341.63595084 -152.4375 346.0625 C-138.05287843 354.44135952 -124.99644548 360.50250647 -108.4375 363.0625 C-107.1896875 363.26875 -105.941875 363.475 -104.65625 363.6875 C-97.8641063 364.75061814 -91.31133835 365.34759007 -84.4375 365.0625 C-83.57638484 362.03480685 -83.25519107 359.21983363 -83.12109375 356.078125 C-83.07919922 355.14355469 -83.03730469 354.20898438 -82.99414062 353.24609375 C-82.95482422 352.27800781 -82.91550781 351.30992187 -82.875 350.3125 C-82.81022461 348.83716797 -82.81022461 348.83716797 -82.74414062 347.33203125 C-82.63827948 344.90898725 -82.53619829 342.4858446 -82.4375 340.0625 C-81.7775 340.0625 -81.1175 340.0625 -80.4375 340.0625 C-81.0975 348.6425 -81.7575 357.2225 -82.4375 366.0625 C-71.83648991 366.40446807 -62.12438987 365.35835542 -51.72119141 363.47265625 C-49.62298341 363.09581325 -47.52218611 362.74755985 -45.41796875 362.40625 C-38.6927767 361.22317957 -32.41282521 359.53367071 -26.0625 357.0625 C-25.41313477 356.81330811 -24.76376953 356.56411621 -24.09472656 356.30737305 C-22.08075429 355.50927171 -22.08075429 355.50927171 -19.4375 354.0625 C-18.13969872 351.25060581 -18.13969872 351.25060581 -19.15014648 349.30078125 C-19.53243408 348.66527344 -19.91472168 348.02976562 -20.30859375 347.375 C-20.71787109 346.67632812 -21.12714844 345.97765625 -21.54882812 345.2578125 C-21.98646484 344.53335938 -22.42410156 343.80890625 -22.875 343.0625 C-23.73364622 341.62844599 -24.58676817 340.19106582 -25.43359375 338.75 C-25.81700928 338.11449219 -26.2004248 337.47898437 -26.59545898 336.82421875 C-27.4375 335.0625 -27.4375 335.0625 -27.4375 332.0625 C-26.7775 332.0625 -26.1175 332.0625 -25.4375 332.0625 C-22.1375 338.0025 -18.8375 343.9425 -15.4375 350.0625 C1.41217544 346.69256491 19.77332729 326.73660365 29.02587891 313.09375 C30.56856014 310.76910551 32.0743957 308.42238203 33.5625 306.0625 C31.30784233 303.60602682 29.00404514 302.01237474 26.11328125 300.36328125 C25.26572266 299.87666016 24.41816406 299.39003906 23.54492188 298.88867188 C22.66384766 298.38916016 21.78277344 297.88964844 20.875 297.375 C19.53598633 296.60833008 19.53598633 296.60833008 18.16992188 295.82617188 C15.96985735 294.56731142 13.76735553 293.31294404 11.5625 292.0625 C17.02994517 294.01362749 21.87041082 297.03277735 26.85546875 299.9609375 C27.54511719 300.35796875 28.23476563 300.755 28.9453125 301.1640625 C29.56809082 301.52838379 30.19086914 301.89270508 30.83251953 302.26806641 C32.69960226 303.2711585 32.69960226 303.2711585 35.5625 303.0625 C47.45034614 281.16231743 55.5502165 259.41389012 54.5625 234.0625 C47.3025 234.0625 40.0425 234.0625 32.5625 234.0625 C41.3125 233.625 41.3125 233.625 44.04980469 233.49438477 C44.77071289 233.45627686 45.49162109 233.41816895 46.234375 233.37890625 C46.9675293 233.34224854 47.70068359 233.30559082 48.45605469 233.26782227 C50.57427605 233.06135215 52.5144456 232.63117914 54.5625 232.0625 C55.49475036 214.14257636 50.98994359 195.58966302 44 179.1875 C43.70706055 178.49068115 43.41412109 177.7938623 43.11230469 177.07592773 C42.34893523 175.36351017 41.46394283 173.70643055 40.5625 172.0625 C37.73812663 170.76474064 37.73812663 170.76474064 35.70898438 171.79101562 C35.03158203 172.17966797 34.35417969 172.56832031 33.65625 172.96875 C32.91246094 173.38253906 32.16867187 173.79632813 31.40234375 174.22265625 C30.63019531 174.66480469 29.85804688 175.10695313 29.0625 175.5625 C27.53650147 176.43631886 26.0054301 177.30135518 24.46875 178.15625 C23.79134766 178.54490234 23.11394531 178.93355469 22.41601562 179.33398438 C20.5625 180.0625 20.5625 180.0625 17.5625 179.0625 C21.60021338 175.80791995 26.13824482 173.45893593 30.69335938 171.0234375 C34.63920266 168.95827784 34.63920266 168.95827784 36.5625 165.0625 C28.01986069 149.64078798 13.71413594 133.11168395 -1.4375 124.0625 C-2.4275 124.0625 -3.4175 124.0625 -4.4375 124.0625 C-6.35101747 126.2514929 -8.08922181 128.41891693 -9.8125 130.75 C-13.12506265 135.16826694 -16.43062427 139.25232544 -20.4375 143.0625 C-18.68777888 140.83311395 -16.93773195 138.60398496 -15.1875 136.375 C-14.69636719 135.74916016 -14.20523438 135.12332031 -13.69921875 134.47851562 C-13.21582031 133.86298828 -12.73242188 133.24746094 -12.234375 132.61328125 C-11.5237793 131.70376709 -11.5237793 131.70376709 -10.79882812 130.77587891 C-9.59078852 129.25543021 -8.33745152 127.77121793 -7.078125 126.29296875 C-5.14123745 124.12120235 -5.14123745 124.12120235 -5.4375 121.0625 C-27.01455142 108.25566329 -47.88098925 100.35971157 -73.4375 101.0625 C-74.29861516 104.09019315 -74.61980893 106.90516637 -74.75390625 110.046875 C-74.79580078 110.98144531 -74.83769531 111.91601562 -74.88085938 112.87890625 C-74.92017578 113.84699219 -74.95949219 114.81507813 -75 115.8125 C-75.06477539 117.28783203 -75.06477539 117.28783203 -75.13085938 118.79296875 C-75.23672052 121.21601275 -75.33880171 123.6391554 -75.4375 126.0625 C-76.0975 126.0625 -76.7575 126.0625 -77.4375 126.0625 C-77.37691406 125.45253174 -77.31632813 124.84256348 -77.25390625 124.21411133 C-76.97926104 121.43464896 -76.70834633 118.65483502 -76.4375 115.875 C-76.34210938 114.91529297 -76.24671875 113.95558594 -76.1484375 112.96679688 C-76.05820312 112.03544922 -75.96796875 111.10410156 -75.875 110.14453125 C-75.79121094 109.29093018 -75.70742188 108.4373291 -75.62109375 107.55786133 C-75.43655169 105.04961079 -75.40600062 102.57654403 -75.4375 100.0625 C-86.46202752 99.68995652 -96.70050829 100.36863871 -107.49755859 102.65673828 Z " fill="#219EA7" transform="translate(334.4375,22.9375)"/>
<path d="M0 0 C0.8971875 0.2784375 1.794375 0.556875 2.71875 0.84375 C7.35345844 2.54509867 7.35345844 2.54509867 9 4 C12.81057343 19.75723608 9.95029539 37.58234226 6 53 C8.31 53.66 10.62 54.32 13 55 C12.01 57.97 11.02 60.94 10 64 C7.69 63.67 5.38 63.34 3 63 C2.57589844 64.01578125 2.15179688 65.0315625 1.71484375 66.078125 C-1.95194734 74.74105105 -5.74578728 83.15723385 -11 91 C-11.66644531 92.0003125 -12.33289063 93.000625 -13.01953125 94.03125 C-15.19296452 96.88216787 -17.01960386 99.0038277 -20 101 C-24.38466622 101.46832216 -27.88339166 100.46588731 -32 99 C-32.80824219 98.71898437 -33.61648437 98.43796875 -34.44921875 98.1484375 C-42.24481547 95.01931491 -49.38156214 90.24270873 -55 84 C-55.804375 83.154375 -56.60875 82.30875 -57.4375 81.4375 C-65.92395739 70.86289221 -69.84105163 57.22887735 -68.73730469 43.78613281 C-67.42074302 32.4897086 -63.54273122 22.56452978 -56 14 C-55.47664063 13.39542969 -54.95328125 12.79085937 -54.4140625 12.16796875 C-40.16135014 -3.18882696 -19.34809254 -6.16587565 0 0 Z " fill="#EEA326" transform="translate(85,142)"/>
<path d="M0 0 C12.32764329 8.01991609 20.34810032 18.98789608 24.171875 33.3515625 C25.95776026 45.74560618 25.64645537 59.28930268 19.23828125 70.34765625 C15.73194433 73.93572597 10.3584827 73.2544987 5.61865234 73.35375977 C-6.8175548 73.45228007 -18.58809845 72.01230052 -30.4375 68.0625 C-30.9325 70.0425 -30.9325 70.0425 -31.4375 72.0625 C-34.4075 71.7325 -37.3775 71.4025 -40.4375 71.0625 C-40.4375 69.0825 -40.4375 67.1025 -40.4375 65.0625 C-40.95546143 64.83175781 -41.47342285 64.60101563 -42.00708008 64.36328125 C-52.2654469 59.75492825 -61.69053849 55.21219028 -70.4375 48.0625 C-71.16839844 47.53914063 -71.89929688 47.01578125 -72.65234375 46.4765625 C-75.92727323 44.02522914 -77.27104652 42.92805811 -78.0625 38.8125 C-75.45592576 23.17305455 -68.37426196 10.68125607 -55.5 1.1875 C-38.58751858 -9.99953919 -17.47323186 -10.0477574 0 0 Z " fill="#EEA326" transform="translate(334.4375,22.9375)"/>
<path d="M0 0 C3.83834246 1.58184202 6.26666848 4.02288989 9.17578125 6.9453125 C9.66402878 7.43401825 10.15227631 7.922724 10.65531921 8.42623901 C11.68722198 9.46115667 12.71669944 10.49849751 13.74389648 11.53808594 C15.29174892 13.10400669 16.8472635 14.66196358 18.40429688 16.21875 C34.49019006 32.3585004 34.49019006 32.3585004 35.4375 39.125 C34.82033307 44.59133569 32.30488649 47.72265797 29 52 C28.45859375 52.76441406 27.9171875 53.52882813 27.359375 54.31640625 C24.47727346 58.08064635 22.38401244 60.40803353 17.5625 61.0625 C10.14233051 61.41450045 4.46891357 60.16564285 -1.87109375 56.32421875 C-2.47889175 55.95778763 -3.08668976 55.59135651 -3.71290588 55.21382141 C-4.98328191 54.44310746 -6.24945949 53.66543321 -7.51147461 52.88110352 C-9.44588719 51.68230226 -11.396076 50.5130256 -13.34960938 49.34570312 C-14.58697198 48.59023342 -15.82333817 47.83312873 -17.05859375 47.07421875 C-18.17548584 46.38932373 -19.29237793 45.70442871 -20.44311523 44.9987793 C-23 43 -23 43 -23.99365234 40.93530273 C-24.00515433 37.42852274 -21.29828801 34.98971799 -19.1875 32.375 C-11.44932503 22.35271023 -5.58639061 11.3339271 0 0 Z " fill="#184857" transform="translate(409,324)"/>
<path d="M0 0 C1.32499512 0.01244751 1.32499512 0.01244751 2.67675781 0.02514648 C12.50556948 0.28021631 18.94818076 2.8714865 26.3359375 9.36328125 C31.19203891 14.99339009 32.84007845 19.51416398 32.6875 26.8125 C32.66888916 27.93893921 32.66888916 27.93893921 32.64990234 29.08813477 C32.22482376 39.57075444 27.05499498 45.00322177 19.68359375 52.08984375 C17.44568522 54.14325295 15.17985327 56.14751552 12.875 58.125 C6.95941835 63.22793609 2.83357949 68.06414472 0.125 75.4375 C-1.855 75.4375 -3.835 75.4375 -5.875 75.4375 C-6.96456921 66.06720476 -1.92905329 57.35736338 2.25 49.25 C7.53689888 38.79883649 9.44419539 29.11482214 8.125 17.4375 C6.65912557 13.36562658 4.90339314 10.50170742 1.16015625 8.26171875 C-3.21586653 6.48947152 -7.10222216 7.19767239 -11.5 8.5625 C-15.91026006 11.01264448 -18.58812558 13.86375117 -20.875 18.4375 C-20.94450541 19.97773996 -20.95952357 21.52084988 -20.9375 23.0625 C-20.92396484 24.28839844 -20.92396484 24.28839844 -20.91015625 25.5390625 C-20.89855469 26.16554687 -20.88695312 26.79203125 -20.875 27.4375 C-16.0852679 27.67178313 -16.0852679 27.67178313 -11.875 25.4375 C-9.04420408 25.08365051 -7.50669911 25.0454109 -5.0625 26.5625 C-3.28794132 29.36443476 -3.41916217 31.18151548 -3.875 34.4375 C-6.27752407 38.3527244 -8.41028359 40.3213209 -12.875 41.4375 C-17.57291725 41.88492069 -19.86937236 41.92097483 -24.125 39.875 C-28.20588676 36.25785037 -30.47262693 33.18841793 -31.2578125 27.8203125 C-31.57640373 20.15288349 -30.08499504 14.93128635 -24.88671875 9.2734375 C-17.2675065 2.03584383 -10.39537324 -0.12554321 0 0 Z " fill="#0A0D0D" transform="translate(256.875,169.5625)"/>
<path d="M0 0 C1.13050781 0.0721875 2.26101562 0.144375 3.42578125 0.21875 C17.95465797 1.07744151 32.44947121 1.10684414 47 1 C49.03556189 9.3096851 49.66603101 17.47554463 50 26 C50.05414063 27.23621094 50.10828125 28.47242188 50.1640625 29.74609375 C50.19242187 30.88175781 50.22078125 32.01742187 50.25 33.1875 C50.27578125 34.19167969 50.3015625 35.19585937 50.328125 36.23046875 C49.83884842 40.36019608 48.19299528 42.84914142 45.23046875 45.70703125 C38.13562708 49.81980286 28.06594527 50.76818526 20 50 C15.8493927 48.04907745 14.21535682 46.27729118 12.44921875 42.078125 C12.03720215 41.09908203 11.62518555 40.12003906 11.20068359 39.11132812 C9.24366883 34.04012111 7.48708014 28.92063342 5.8125 23.75 C5.47025391 22.71359375 5.12800781 21.6771875 4.77539062 20.609375 C3.83439846 17.74437362 2.91172983 14.87442969 2 12 C1.77489746 11.30197266 1.54979492 10.60394531 1.31787109 9.88476562 C0.27547544 6.49858133 -0.21476348 3.54359745 0 0 Z " fill="#184757" transform="translate(227,421)"/>
<path d="M0 0 C4.49322252 2.45855572 6.6968496 4.96554879 8.3125 9.8125 C8.99093889 16.89734039 9.30229734 23.2995702 4.95703125 29.22265625 C2.08871382 31.9955902 -1.0086807 33.31603113 -4.6875 34.8125 C-2.79907486 35.68292243 -0.90138098 36.53325474 1 37.375 C2.58361328 38.08849609 2.58361328 38.08849609 4.19921875 38.81640625 C8.95245123 40.33720209 12.01559527 38.94084113 16.5 37.25 C21.51808319 35.7158571 26.29359071 35.48041433 31.5 35.4375 C32.64021606 35.41707642 32.64021606 35.41707642 33.8034668 35.39624023 C38.9990751 35.4375876 42.73194691 36.30806773 47.3125 38.8125 C48.25 41.5 48.25 41.5 48.3125 43.8125 C45.4375 44.4375 45.4375 44.4375 42.3125 44.8125 C41.6525 44.1525 40.9925 43.4925 40.3125 42.8125 C40.3125 41.8225 40.3125 40.8325 40.3125 39.8125 C37.3425 39.4825 34.3725 39.1525 31.3125 38.8125 C31.31773682 39.77663818 31.32297363 40.74077637 31.32836914 41.73413086 C31.34642118 45.29922564 31.35793274 48.86431636 31.36743164 52.42944336 C31.3724714 53.97469766 31.3793032 55.51994716 31.38793945 57.06518555 C31.40002076 59.28175029 31.40573173 61.49825218 31.41015625 63.71484375 C31.41531754 64.4096434 31.42047882 65.10444305 31.42579651 65.82029724 C31.42599277 67.4847933 31.37439129 69.14915499 31.3125 70.8125 C30.3125 71.8125 30.3125 71.8125 27.875 72 C25.3125 71.8125 25.3125 71.8125 23.3125 69.8125 C23.08544922 66.73974609 23.08544922 66.73974609 23.1171875 62.8359375 C23.1200174 62.15069 23.12284729 61.4654425 23.12576294 60.75942993 C23.13696719 58.56860973 23.16207141 56.37819684 23.1875 54.1875 C23.19752952 52.7031309 23.20665542 51.2187554 23.21484375 49.734375 C23.23690706 46.09361739 23.27143824 42.45309844 23.3125 38.8125 C22.00647334 39.24477378 20.7052487 39.6915758 19.40625 40.14453125 C18.68115234 40.39178955 17.95605469 40.63904785 17.20898438 40.89379883 C15.0220233 41.72945258 15.0220233 41.72945258 13.8125 44.5 C13.6475 45.263125 13.4825 46.02625 13.3125 46.8125 C15.7875 46.3175 15.7875 46.3175 18.3125 45.8125 C18.9375 47.6875 18.9375 47.6875 19.3125 49.8125 C17.3125 51.8125 17.3125 51.8125 14.8125 52.0625 C12.3125 51.8125 12.3125 51.8125 10.3125 49.8125 C10.3125 48.4925 10.3125 47.1725 10.3125 45.8125 C9.06146484 45.92078125 9.06146484 45.92078125 7.78515625 46.03125 C3.55002515 45.76447009 0.44507831 44.23231 -3.25 42.3125 C-9.13925389 39.22615563 -9.13925389 39.22615563 -15.6875 38.8125 C-15.44 37.884375 -15.44 37.884375 -15.1875 36.9375 C-14.61115356 34.85186614 -14.61115356 34.85186614 -14.6875 32.8125 C-16.33238294 31.12433067 -18.00087542 29.45896685 -19.6875 27.8125 C-23.09941313 22.6946303 -23.40990872 16.84260614 -22.6875 10.8125 C-21.32624817 6.54379181 -19.71919144 3.59255938 -16.125 0.875 C-10.42227057 -1.61080514 -5.97825474 -1.92520068 0 0 Z " fill="#1A1C1C" transform="translate(212.6875,255.1875)"/>
<path d="M0 0 C3.25 1.0625 3.25 1.0625 5.1875 3.25 C6.43311429 6.5472143 6.8438584 8.5735819 6.25 12.0625 C2.45562899 16.10166914 -2.88974246 18.47883368 -7.75 21.0625 C-6.79062088 24.23583095 -5.86243345 26.88760352 -4.0625 29.6875 C-2.75 32.0625 -2.75 32.0625 -2.8515625 34.0390625 C-4.15256853 36.96915433 -5.94137555 37.50413949 -8.8125 38.8125 C-9.73160156 39.24046875 -10.65070313 39.6684375 -11.59765625 40.109375 C-12.30792969 40.42390625 -13.01820313 40.7384375 -13.75 41.0625 C-14.75484204 39.10664675 -15.75373805 37.14773763 -16.75 35.1875 C-17.306875 34.09695312 -17.86375 33.00640625 -18.4375 31.8828125 C-19.75 29.0625 -19.75 29.0625 -19.75 27.0625 C-21.03583984 27.83787109 -21.03583984 27.83787109 -22.34765625 28.62890625 C-23.49105469 29.28761719 -24.63445312 29.94632813 -25.8125 30.625 C-27.50052734 31.61693359 -27.50052734 31.61693359 -29.22265625 32.62890625 C-33.32249659 34.2951758 -35.50623039 34.14944589 -39.75 33.0625 C-42.55618215 30.70892787 -42.72918231 29.2082238 -43.25 25.5625 C-42.75 22.0625 -42.75 22.0625 -40.60302734 20.05078125 C-37.6851633 18.01731515 -34.77006062 16.36385894 -31.6015625 14.75 C-30.43109375 14.14929688 -29.260625 13.54859375 -28.0546875 12.9296875 C-26.82827058 12.30700485 -25.60170697 11.68461104 -24.375 11.0625 C-21.97010813 9.8357493 -19.56702701 8.60552908 -17.1640625 7.375 C-16.04193359 6.80257568 -14.91980469 6.23015137 -13.76367188 5.64038086 C-11.33432518 4.36843759 -8.97987982 3.04344456 -6.6328125 1.62890625 C-3.75 0.0625 -3.75 0.0625 0 0 Z " fill="#EFA833" transform="translate(185.75,69.9375)"/>
<path d="M0 0 C1.875 1.5 1.875 1.5 3 3 C3.556875 2.505 4.11375 2.01 4.6875 1.5 C7.4411615 -0.28615881 8.77756457 -0.4957593 12 0 C13.8125 1.5 13.8125 1.5 15 3 C15.515625 2.484375 16.03125 1.96875 16.5625 1.4375 C20.00862154 -0.59482809 22.20643396 0.06950267 26 1 C27.1482685 3.296537 27.11561175 4.58313167 27.09765625 7.1328125 C27.09443359 7.93847656 27.09121094 8.74414062 27.08789062 9.57421875 C27.07532227 10.83685547 27.07532227 10.83685547 27.0625 12.125 C27.05798828 12.97449219 27.05347656 13.82398438 27.04882812 14.69921875 C27.03702874 16.79950909 27.01909306 18.8997633 27 21 C27.99 21.33 28.98 21.66 30 22 C28.875 23.5 28.875 23.5 27 25 C23.875 25.25 23.875 25.25 21 25 C19.45049732 23.45049732 19.78344807 21.90009406 19.68359375 19.74609375 C19.64169922 18.89208984 19.59980469 18.03808594 19.55664062 17.15820312 C19.51732422 16.26037109 19.47800781 15.36253906 19.4375 14.4375 C19.39431641 13.53580078 19.35113281 12.63410156 19.30664062 11.70507812 C19.20021858 9.47021515 19.09820012 7.23523692 19 5 C17.35 5.33 15.7 5.66 14 6 C14.01160156 7.28777344 14.02320313 8.57554687 14.03515625 9.90234375 C14.0445327 11.58072772 14.05363305 13.25911326 14.0625 14.9375 C14.07087891 15.78763672 14.07925781 16.63777344 14.08789062 17.51367188 C14.09272461 18.72700195 14.09272461 18.72700195 14.09765625 19.96484375 C14.10551147 21.08814087 14.10551147 21.08814087 14.11352539 22.23413086 C14 24 14 24 13 25 C10.5 25.125 10.5 25.125 8 25 C7 24 7 24 6.88647461 22.05053711 C6.89171143 21.2178833 6.89694824 20.38522949 6.90234375 19.52734375 C6.90556641 18.62822266 6.90878906 17.72910156 6.91210938 16.80273438 C6.92048828 15.85720703 6.92886719 14.91167969 6.9375 13.9375 C6.94426758 12.5134082 6.94426758 12.5134082 6.95117188 11.06054688 C6.9629989 8.70696935 6.97947975 6.35351523 7 4 C5.02 4.99 5.02 4.99 3 6 C2.93941406 7.28777344 2.87882812 8.57554687 2.81640625 9.90234375 C2.73201753 11.58074159 2.6473687 13.25912636 2.5625 14.9375 C2.52318359 15.78763672 2.48386719 16.63777344 2.44335938 17.51367188 C2.40146484 18.32255859 2.35957031 19.13144531 2.31640625 19.96484375 C2.26141968 21.08814087 2.26141968 21.08814087 2.20532227 22.23413086 C2 24 2 24 1 25 C-1.31 24.67 -3.62 24.34 -6 24 C-6 17.07 -6 10.14 -6 3 C-6.99 2.67 -7.98 2.34 -9 2 C-5.53076119 -0.31282587 -4.07794425 -0.42478586 0 0 Z " fill="#0E1010" transform="translate(273,302)"/>
<path d="M0 0 C2.3125 0.75 2.3125 0.75 3.3125 1.75 C3.39901611 3.16570123 3.41954904 4.585595 3.41015625 6.00390625 C3.40693359 6.85791016 3.40371094 7.71191406 3.40039062 8.59179688 C3.39201172 9.48962891 3.38363281 10.38746094 3.375 11.3125 C3.37048828 12.21419922 3.36597656 13.11589844 3.36132812 14.04492188 C3.34950225 16.28001314 3.3330222 18.51497437 3.3125 20.75 C4.9625 20.09 6.6125 19.43 8.3125 18.75 C8.6425 13.8 8.9725 8.85 9.3125 3.75 C8.3225 3.42 7.3325 3.09 6.3125 2.75 C8 1.1875 8 1.1875 10.3125 -0.25 C14.72275641 0.16025641 14.72275641 0.16025641 16.3125 1.75 C16.39919432 3.2387186 16.41953494 4.731445 16.41015625 6.22265625 C16.40693359 7.12177734 16.40371094 8.02089844 16.40039062 8.94726562 C16.39201172 9.89279297 16.38363281 10.83832031 16.375 11.8125 C16.37048828 12.76189453 16.36597656 13.71128906 16.36132812 14.68945312 C16.3495011 17.04303065 16.33302025 19.39648477 16.3125 21.75 C17.3025 21.42 18.2925 21.09 19.3125 20.75 C18.3125 23.75 18.3125 23.75 16.3125 24.75 C13.3125 24.9375 13.3125 24.9375 10.3125 24.75 C9.6525 24.09 8.9925 23.43 8.3125 22.75 C7.77625 23.08 7.24 23.41 6.6875 23.75 C3.69608852 25.00954167 1.52817216 25.09952958 -1.6875 24.75 C-3.75473714 21.64914429 -3.93247423 21.02068319 -3.8828125 17.51953125 C-3.87636719 16.71708984 -3.86992187 15.91464844 -3.86328125 15.08789062 C-3.84652344 14.25451172 -3.82976562 13.42113281 -3.8125 12.5625 C-3.80347656 11.71751953 -3.79445312 10.87253906 -3.78515625 10.00195312 C-3.76160703 7.91784757 -3.72573647 5.83388783 -3.6875 3.75 C-4.6775 3.42 -5.6675 3.09 -6.6875 2.75 C-4.28017516 0.52099552 -3.34709579 -0.31135775 0 0 Z " fill="#0D0F0F" transform="translate(229.6875,264.25)"/>
<path d="M0 0 C2.31 0.33 4.62 0.66 7 1 C10.6615163 8.93328532 11.60934578 17.25056032 8.625 25.625 C7 29 7 29 5 31 C2.0625 31.0625 2.0625 31.0625 -1 30 C-3.87791707 24.75759708 -4.49534226 20.35318545 -4.4375 14.4375 C-4.45748047 13.70853516 -4.47746094 12.97957031 -4.49804688 12.22851562 C-4.49326461 6.91542107 -3.31119526 4.15046852 0 0 Z " fill="#ECEBEB" transform="translate(203,256)"/>
<path d="M0 0 C0.79535156 -0.020625 1.59070313 -0.04125 2.41015625 -0.0625 C7.81284025 -0.09798561 11.6238171 0.60906654 16.375 3.25 C17.3125 5.9375 17.3125 5.9375 17.375 8.25 C14.5 8.875 14.5 8.875 11.375 9.25 C10.715 8.59 10.055 7.93 9.375 7.25 C9.375 6.26 9.375 5.27 9.375 4.25 C6.405 3.92 3.435 3.59 0.375 3.25 C0.38023682 4.21413818 0.38547363 5.17827637 0.39086914 6.17163086 C0.40892118 9.73672564 0.42043274 13.30181636 0.42993164 16.86694336 C0.4349714 18.41219766 0.4418032 19.95744716 0.45043945 21.50268555 C0.46252076 23.71925029 0.46823173 25.93575218 0.47265625 28.15234375 C0.47781754 28.8471434 0.48297882 29.54194305 0.48829651 30.25779724 C0.48849277 31.9222933 0.43689129 33.58665499 0.375 35.25 C-0.625 36.25 -0.625 36.25 -3.125 36.375 C-5.625 36.25 -5.625 36.25 -6.625 35.25 C-6.71343793 32.80169574 -6.74028752 30.38179401 -6.72265625 27.93359375 C-6.72053383 26.83701195 -6.72053383 26.83701195 -6.71836853 25.71827698 C-6.71275408 23.37464368 -6.70019922 21.03110461 -6.6875 18.6875 C-6.68248686 17.10221492 -6.67792363 15.51692834 -6.67382812 13.93164062 C-6.66277997 10.0377239 -6.64550572 6.14387795 -6.625 2.25 C-7.615 1.92 -8.605 1.59 -9.625 1.25 C-7.49523278 -0.87976722 -2.93611579 0.01849522 0 0 Z " fill="#060909" transform="translate(243.625,290.75)"/>
<path d="M0 0 C2.0625 1.25 2.0625 1.25 3 3 C2.84375 4.92578125 2.84375 4.92578125 2 7 C-0.25827911 8.66916282 -2.61784563 9.96849701 -5.06640625 11.33984375 C-7.26270639 12.86241282 -7.26270639 12.86241282 -7.40234375 15.56640625 C-7.21380196 18.17439602 -7.21380196 18.17439602 -5 20 C-0.34805286 20.34216235 -0.34805286 20.34216235 4 19 C3.06896676 21.32758311 2.34617872 22.74357132 0.3125 24.25 C-3.95214086 25.63312677 -7.60289148 25.57154439 -11.75 23.875 C-14.69576467 21.42019611 -15.78193517 19.65419449 -17 16 C-17.29565508 11.06951669 -16.76408713 7.94505513 -13.625 4.0625 C-8.81305364 0.281685 -6.00595692 -0.8116158 0 0 Z " fill="#1A1B1B" transform="translate(321,302)"/>
<path d="M0 0 C3 1 3 1 4.24609375 3.08984375 C15.41470873 29.78466448 16.97692828 63.23877258 9 91 C8.79149414 91.73605469 8.58298828 92.47210938 8.36816406 93.23046875 C4.64748568 106.02914935 4.64748568 106.02914935 1 109 C-0.31009939 105.06970183 0.66638022 103.75145135 2.1875 99.9375 C4.36273925 94.23169186 5.95164803 88.52801754 7.25 82.5625 C7.41266357 81.81798584 7.57532715 81.07347168 7.74291992 80.30639648 C12.74683874 56.6300294 12.14208468 26.83723004 0.84765625 4.74609375 C0 3 0 3 0 0 Z " fill="#4A4A4A" transform="translate(427,203)"/>
<path d="M0 0 C0.95003906 -0.00515625 1.90007812 -0.0103125 2.87890625 -0.015625 C5.4375 0.25 5.4375 0.25 8.4375 2.25 C7.97073489 7.76631498 5.90673418 11.17721846 2.875 15.625 C2.23788086 16.58599609 2.23788086 16.58599609 1.58789062 17.56640625 C0.54691258 19.1337215 -0.50654634 20.69273501 -1.5625 22.25 C1.35384129 22.5002157 1.35384129 22.5002157 4.4375 22.25 C5.0975 21.26 5.7575 20.27 6.4375 19.25 C7.4275 19.58 8.4175 19.91 9.4375 20.25 C9.0625 22.1875 9.0625 22.1875 8.4375 24.25 C5.38767742 25.77491129 2.21627461 25.39361434 -1.125 25.375 C-1.82302734 25.37886719 -2.52105469 25.38273437 -3.24023438 25.38671875 C-8.43586006 25.37663994 -8.43586006 25.37663994 -9.5625 24.25 C-9.92324973 20.3533237 -9.32145118 18.26616596 -7.15625 15.04296875 C-6.65996094 14.29208984 -6.16367187 13.54121094 -5.65234375 12.76757812 C-5.12769531 11.99865234 -4.60304688 11.22972656 -4.0625 10.4375 C-3.53785156 9.64923828 -3.01320313 8.86097656 -2.47265625 8.04882812 C-1.17931547 6.10881695 0.12416167 4.17650475 1.4375 2.25 C-0.91421131 2.84861742 -3.2484378 3.51924352 -5.5625 4.25 C-5.8925 4.91 -6.2225 5.57 -6.5625 6.25 C-7.5525 5.92 -8.5425 5.59 -9.5625 5.25 C-9.5625 4.26 -9.5625 3.27 -9.5625 2.25 C-6.28561897 0.29781556 -3.79180273 -0.02063566 0 0 Z " fill="#121414" transform="translate(273.5625,263.75)"/>
<path d="M0 0 C2.94606829 0.13702643 5.20159518 0.29875555 7.4765625 2.296875 C12.21112003 7.88974413 12.40689807 12.61092939 12.34375 19.69140625 C11.85064403 24.43755117 10.3447557 27.61180591 7 31 C2.21875 34 2.21875 34 -1 34 C-0.38033364 31.25662271 0.39509875 29.11497879 1.5625 26.5 C4.9000962 17.65454799 3.20157359 8.61375751 0 0 Z " fill="#0E1010" transform="translate(209,255)"/>
<path d="M0 0 C0.99 0 1.98 0 3 0 C4.01351664 1.65848177 5.01120795 3.32665961 6 5 C7.66215268 6.33895632 9.32963607 7.67130142 11 9 C12.01675857 10.17318296 13.01479552 11.36269652 14 12.5625 C30.36307115 31.48888487 54.49591338 43.92245785 79 48 C79 48.66 79 49.32 79 50 C55.16246911 50.8438064 31.30248136 33.91202074 14.53759766 18.50048828 C11.58432753 15.61849429 9.08449247 12.42933078 6.62109375 9.12890625 C5.18320513 7.24059469 3.71644493 5.63086042 2 4 C1.34 3.34 0.68 2.68 0 2 C0 1.34 0 0.68 0 0 Z " fill="#5E5E5E" transform="translate(121,378)"/>
<path d="M0 0 C1.875 1.5 1.875 1.5 3 3 C4.32 2.34 5.64 1.68 7 1 C6 4 6 4 3 6 C2.51080027 7.9089105 2.51080027 7.9089105 2.5234375 10.09765625 C2.47703125 11.29938477 2.47703125 11.29938477 2.4296875 12.52539062 C2.41164063 13.36263672 2.39359375 14.19988281 2.375 15.0625 C2.10424901 23.89575099 2.10424901 23.89575099 1 25 C-1.31 24.67 -3.62 24.34 -6 24 C-6 17.07 -6 10.14 -6 3 C-6.99 2.67 -7.98 2.34 -9 2 C-5.53076119 -0.31282587 -4.07794425 -0.42478586 0 0 Z " fill="#191B1B" transform="translate(273,302)"/>
<path d="M0 0 C2.49057251 2.49057251 2.2565813 3.28472659 2.265625 6.71875 C2.26820313 7.65074219 2.27078125 8.58273437 2.2734375 9.54296875 C2.26570313 10.51878906 2.25796875 11.49460937 2.25 12.5 C2.25773437 13.47582031 2.26546875 14.45164062 2.2734375 15.45703125 C2.27085937 16.38902344 2.26828125 17.32101562 2.265625 18.28125 C2.26336914 19.13783203 2.26111328 19.99441406 2.25878906 20.87695312 C2 23 2 23 0 25 C-2.5625 25.1875 -2.5625 25.1875 -5 25 C-6 24 -6 24 -6.11352539 21.95874023 C-6.10828857 21.08419189 -6.10305176 20.20964355 -6.09765625 19.30859375 C-6.09282227 17.89223633 -6.09282227 17.89223633 -6.08789062 16.44726562 C-6.07951172 15.45404297 -6.07113281 14.46082031 -6.0625 13.4375 C-6.05798828 12.44041016 -6.05347656 11.44332031 -6.04882812 10.41601562 C-6.03700007 7.94395151 -6.02051849 5.47200482 -6 3 C-6.99 2.67 -7.98 2.34 -9 2 C-5.54754176 -0.30163882 -4.05261287 -0.34490322 0 0 Z " fill="#1A1C1C" transform="translate(260,302)"/>
<path d="M0 0 C2 2 2 2 2.24291992 4.23071289 C2.23675659 5.58797485 2.23675659 5.58797485 2.23046875 6.97265625 C2.22853516 7.95427734 2.22660156 8.93589844 2.22460938 9.94726562 C2.21236328 10.97529297 2.20011719 12.00332031 2.1875 13.0625 C2.18685547 14.09439453 2.18621094 15.12628906 2.18554688 16.18945312 C2.14015997 23.85984003 2.14015997 23.85984003 1 25 C-0.98 25 -2.96 25 -5 25 C-5 17.74 -5 10.48 -5 3 C-5.99 2.67 -6.98 2.34 -8 2 C-4.77626323 -0.14915785 -3.73296326 -0.38286803 0 0 Z " fill="#090B0B" transform="translate(258,264)"/>
<path d="M0 0 C2.16551116 3.24826674 2.55156953 4.23094157 2 8 C0.00600369 10.73251347 -1.1623973 11.83247946 -4.5 12.5 C-7.87013879 11.82597224 -9.01677007 10.7912125 -11 8 C-11.5 4.9375 -11.5 4.9375 -11 2 C-7.82775887 -1.933579 -4.58022934 -1.18746687 0 0 Z " fill="#101313" transform="translate(260,251)"/>
<path d="M0 0 C0.66 0 1.32 0 2 0 C1.44712232 3.7381133 0.02221638 5.26300232 -2.8125 7.6875 C-3.49957031 8.28949219 -4.18664062 8.89148438 -4.89453125 9.51171875 C-9.84785785 13.0130498 -16.28556433 12.55054487 -22.08203125 11.69140625 C-28.18791725 10.33052831 -34.45032611 8.32451084 -38 3 C-37.34 2.67 -36.68 2.34 -36 2 C-33.9765625 2.9609375 -33.9765625 2.9609375 -31.625 4.375 C-24.52469291 8.62568551 -17.1967572 9.16052192 -9 8 C-5.72719923 6.12090294 -3.40302591 3.88778618 -1 1 C-0.67 0.67 -0.34 0.34 0 0 Z " fill="#616060" transform="translate(77,239)"/>
<path d="M0 0 C3.65766864 0.57709883 5.28050214 1.98314512 7.875 4.5625 C19.4495169 15.1487166 33.70680854 20.42857843 49 23 C49 23.66 49 24.32 49 25 C32.05979066 23.85151123 16.36891569 16.61721363 4 5 C2.6363693 3.35802958 1.29467291 1.69687289 0 0 Z " fill="#787777" transform="translate(141,411)"/>
<path d="M0 0 C2.69992666 0.34912845 3.7659237 0.72613072 5.5625 2.828125 C11.88678429 13.48316918 14.80508631 23.58825275 14 36 C12.515 36.495 12.515 36.495 11 37 C11.0928125 35.1746875 11.0928125 35.1746875 11.1875 33.3125 C11.13564853 22.30270551 7.58084905 13.31177877 2 4 C1.31990001 2.67346834 0.64799894 1.34250497 0 0 Z " fill="#676767" transform="translate(357,34)"/>
<path d="M0 0 C2.6537981 2.6537981 2.29869984 3.91735673 2.3125 7.625 C2.00888616 22.97436646 -2.1822348 36.36446959 -9 50 C-9.66 50 -10.32 50 -11 50 C-10.35916844 45.80333481 -8.90943269 42.40213751 -7.125 38.5625 C-1.61182001 26.09498984 -0.47270002 13.4638006 0 0 Z " fill="#797778" transform="translate(448,266)"/>
<path d="M0 0 C0.99 0.33 1.98 0.66 3 1 C3.88671875 3.3359375 3.88671875 3.3359375 4.6875 6.375 C7.12105283 14.21852797 11.27249659 21.03914622 17.75390625 26.1875 C18.49511719 26.785625 19.23632812 27.38375 20 28 C20 28.66 20 29.32 20 30 C15.71091766 29.5234353 13.81725451 27.09210861 11 24 C10.195625 23.154375 9.39125 22.30875 8.5625 21.4375 C3.56113242 15.30524995 -0.51280905 8.01413207 0 0 Z " fill="#F4CB51" transform="translate(26,196)"/>
<path d="M0 0 C0.33 0.99 0.66 1.98 1 3 C-1.93169446 4.67703806 -4.87124524 6.33979518 -7.8125 8 C-8.64587891 8.47695313 -9.47925781 8.95390625 -10.33789062 9.4453125 C-11.14033203 9.89648438 -11.94277344 10.34765625 -12.76953125 10.8125 C-13.87711792 11.44091797 -13.87711792 11.44091797 -15.00708008 12.08203125 C-17 13 -17 13 -20 13 C-20 11.68 -20 10.36 -20 9 C-17.23456804 7.48987869 -14.46183193 5.99369852 -11.6875 4.5 C-10.90181641 4.07074219 -10.11613281 3.64148438 -9.30664062 3.19921875 C-8.54931641 2.79316406 -7.79199219 2.38710938 -7.01171875 1.96875 C-6.31522217 1.59169922 -5.61872559 1.21464844 -4.90112305 0.82617188 C-3 0 -3 0 0 0 Z " fill="#191B1B" transform="translate(156,305)"/>
<path d="M0 0 C0.33 0.99 0.66 1.98 1 3 C-1.90184524 4.73450799 -4.82334426 6.4327466 -7.75 8.125 C-8.575 8.61871094 -9.4 9.11242187 -10.25 9.62109375 C-11.04921875 10.07871094 -11.8484375 10.53632813 -12.671875 11.0078125 C-13.4050293 11.43723145 -14.13818359 11.86665039 -14.89355469 12.30908203 C-17 13 -17 13 -19.27050781 12.12451172 C-19.84124023 11.75342285 -20.41197266 11.38233398 -21 11 C-17.91065423 7.69611633 -14.46494156 5.90070256 -10.5 3.8125 C-9.82324219 3.44447266 -9.14648438 3.07644531 -8.44921875 2.69726562 C-3.37495652 0 -3.37495652 0 0 0 Z " fill="#1A1B1B" transform="translate(372,191)"/>
<path d="M0 0 C4.62123013 1.54041004 5.59071101 5.20627804 7.75 9.375 C8.17410156 10.15617188 8.59820312 10.93734375 9.03515625 11.7421875 C9.43089844 12.495 9.82664063 13.2478125 10.234375 14.0234375 C10.59756836 14.71356934 10.96076172 15.40370117 11.33496094 16.11474609 C12 18 12 18 11 21 C10.01 21 9.02 21 8 21 C6.46293927 18.0707161 4.94824838 15.13042886 3.4375 12.1875 C2.99986328 11.35412109 2.56222656 10.52074219 2.11132812 9.66210938 C1.49741211 8.45844727 1.49741211 8.45844727 0.87109375 7.23046875 C0.48880615 6.49207764 0.10651855 5.75368652 -0.28735352 4.99291992 C-1 3 -1 3 0 0 Z " fill="#191B1B" transform="translate(192,137)"/>
<path d="M0 0 C4.49949278 1.49983093 5.52636262 4.80363955 7.75 8.8125 C8.17410156 9.53759766 8.59820312 10.26269531 9.03515625 11.00976562 C9.43089844 11.71423828 9.82664062 12.41871094 10.234375 13.14453125 C10.59756836 13.78753174 10.96076172 14.43053223 11.33496094 15.09301758 C12.15261745 17.43762662 11.80157883 18.68984982 11 21 C6.50050722 19.50016907 5.47363738 16.19636045 3.25 12.1875 C2.82589844 11.46240234 2.40179688 10.73730469 1.96484375 9.99023438 C1.56910156 9.28576172 1.17335938 8.58128906 0.765625 7.85546875 C0.40243164 7.21246826 0.03923828 6.56946777 -0.33496094 5.90698242 C-1.15261745 3.56237338 -0.80157883 2.31015018 0 0 Z " fill="#171919" transform="translate(307,354)"/>
<path d="M0 0 C0.33 0 0.66 0 1 0 C2.08885794 6.72687083 1.79854151 11.57849405 -0.1875 18.0625 C-0.39697266 18.81337891 -0.60644531 19.56425781 -0.82226562 20.33789062 C-2.34452364 25.56415923 -4.45158312 30.19238699 -7 35 C-7.66 34.67 -8.32 34.34 -9 34 C-8.8138916 33.46270264 -8.6277832 32.92540527 -8.43603516 32.37182617 C-6.51680902 26.73736184 -4.87156551 21.07242962 -3.375 15.3125 C-3.1584375 14.49716797 -2.941875 13.68183594 -2.71875 12.84179688 C-1.60219043 8.5788827 -0.6350035 4.36741298 0 0 Z " fill="#595959" transform="translate(436,277)"/>
<path d="M0 0 C0.99 0 1.98 0 3 0 C3.63032133 1.20556604 4.2539497 2.41463189 4.875 3.625 C5.22304688 4.29789063 5.57109375 4.97078125 5.9296875 5.6640625 C8.40148003 11.05870458 9.23728172 15.4240689 9.125 21.375 C9.10695313 22.62023437 9.08890625 23.86546875 9.0703125 25.1484375 C9.04710937 26.08945313 9.02390625 27.03046875 9 28 C8.01 28 7.02 28 6 28 C5.98582031 27.04480469 5.97164063 26.08960937 5.95703125 25.10546875 C5.6642417 17.16849795 4.83735652 11.23567001 1.05859375 4.07421875 C0 2 0 2 0 0 Z " fill="#F4CB51" transform="translate(337,40)"/>
<path d="M0 0 C2.85475306 -0.08156437 5.70713565 -0.14076372 8.5625 -0.1875 C9.36236328 -0.21263672 10.16222656 -0.23777344 10.98632812 -0.26367188 C16.42402623 -0.33025593 20.21899256 0.33270111 25 3 C25.9375 5.6875 25.9375 5.6875 26 8 C23.125 8.625 23.125 8.625 20 9 C19.34 8.34 18.68 7.68 18 7 C18 6.01 18 5.02 18 4 C16.68 3.67 15.36 3.34 14 3 C14 2.34 14 1.68 14 1 C9.38 1 4.76 1 0 1 C0 0.67 0 0.34 0 0 Z " fill="#434242" transform="translate(235,291)"/>
<path d="M0 0 C0.99 0 1.98 0 3 0 C4.01351664 1.65848177 5.01120795 3.32665961 6 5 C7.66215268 6.33895632 9.32963607 7.67130142 11 9 C13.41104727 11.60152502 15.71527296 14.28729816 18 17 C17.34 17.99 16.68 18.98 16 20 C0 2.51383399 0 2.51383399 0 0 Z " fill="#636362" transform="translate(121,378)"/>
<path d="M0 0 C3.75093673 0.57317685 5.49817947 2.14395533 8.1875 4.75 C12.44486433 8.68205078 16.81541861 11.45060773 22 14 C21.01 14.66 20.02 15.32 19 16 C5.18223235 6.95899772 5.18223235 6.95899772 0 0 Z " fill="#868484" transform="translate(141,411)"/>
<path d="M0 0 C0.66 0 1.32 0 2 0 C1.2439522 4.54636743 -1.03937166 6.72257228 -4.45703125 9.6484375 C-9.14722976 12.14123118 -13.96521722 10.99856525 -19 10 C-19 9.67 -19 9.34 -19 9 C-18.3709375 9.00902344 -17.741875 9.01804688 -17.09375 9.02734375 C-9.63651217 8.76903581 -6.03670649 6.36547323 -1 1 C-0.67 0.67 -0.34 0.34 0 0 Z " fill="#7C7B7B" transform="translate(77,239)"/>
<path d="M0 0 C0.66 0 1.32 0 2 0 C1.8899083 3.41731792 1.75932939 6.83355574 1.625 10.25 C1.5940625 11.21808594 1.563125 12.18617188 1.53125 13.18359375 C1.49257812 14.11816406 1.45390625 15.05273438 1.4140625 16.015625 C1.3826416 16.87446289 1.3512207 17.73330078 1.31884766 18.61816406 C0.98283796 21.1282028 0.25808272 22.81932328 -1 25 C-1.02908357 21.58335127 -1.04682691 18.1667345 -1.0625 14.75 C-1.07087891 13.78191406 -1.07925781 12.81382812 -1.08789062 11.81640625 C-1.09111328 10.88183594 -1.09433594 9.94726562 -1.09765625 8.984375 C-1.10289307 8.12553711 -1.10812988 7.26669922 -1.11352539 6.38183594 C-1.00539986 4.11329256 -0.63582423 2.17368285 0 0 Z " fill="#3F3F3F" transform="translate(252,363)"/>
<path d="M0 0 C0.66 0 1.32 0 2 0 C0.71091801 3.62104791 -0.79002898 6.26812542 -3.2578125 9.20703125 C-3.88300781 9.95791016 -4.50820312 10.70878906 -5.15234375 11.48242188 C-6.12880859 12.63581055 -6.12880859 12.63581055 -7.125 13.8125 C-7.78371094 14.60076172 -8.44242188 15.38902344 -9.12109375 16.20117188 C-10.74177932 18.1389481 -12.3681652 20.07161245 -14 22 C-14.33 21.34 -14.66 20.68 -15 20 C-14.61666504 19.50072998 -14.23333008 19.00145996 -13.83837891 18.48706055 C-12.09960959 16.22128768 -10.3622902 13.95440715 -8.625 11.6875 C-8.02171875 10.90181641 -7.4184375 10.11613281 -6.796875 9.30664062 C-6.21679688 8.54931641 -5.63671875 7.79199219 -5.0390625 7.01171875 C-4.50490723 6.31522217 -3.97075195 5.61872559 -3.42041016 4.90112305 C-2.22800288 3.30516646 -1.10508093 1.65762139 0 0 Z " fill="#272828" transform="translate(195,346)"/>
<path d="M0 0 C5.07634826 1.7989503 9.63713611 4.49026455 14.3125 7.125 C15.14845703 7.59292969 15.98441406 8.06085938 16.84570312 8.54296875 C18.89866233 9.6926259 20.95002202 10.84503802 23 12 C23 12.66 23 13.32 23 14 C17.52423114 12.46048671 12.97842418 9.87914994 8.125 7 C7.34125 6.54882812 6.5575 6.09765625 5.75 5.6328125 C5.01007813 5.19710937 4.27015625 4.76140625 3.5078125 4.3125 C2.83379395 3.91675781 2.15977539 3.52101562 1.46533203 3.11328125 C0.98177246 2.74589844 0.49821289 2.37851563 0 2 C0 1.34 0 0.68 0 0 Z " fill="#313131" transform="translate(143,185)"/>
<path d="M0 0 C0.33 0.66 0.66 1.32 1 2 C-0.74972112 4.22938605 -2.49976805 6.45851504 -4.25 8.6875 C-4.74113281 9.31333984 -5.23226563 9.93917969 -5.73828125 10.58398438 C-6.70570912 11.81584253 -7.67507511 13.04618136 -8.64648438 14.27490234 C-9.86021283 15.82183692 -11.04899515 17.38826805 -12.234375 18.95703125 C-12.81703125 19.63121094 -13.3996875 20.30539063 -14 21 C-14.66 21 -15.32 21 -16 21 C-14.63612885 18.04638063 -13.05802423 15.65655493 -10.99609375 13.14453125 C-10.42052734 12.44005859 -9.84496094 11.73558594 -9.25195312 11.00976562 C-8.35379883 9.92211914 -8.35379883 9.92211914 -7.4375 8.8125 C-6.83486328 8.07580078 -6.23222656 7.33910156 -5.61132812 6.58007812 C-1.20746971 1.20746971 -1.20746971 1.20746971 0 0 Z " fill="#2F2F2F" transform="translate(330,145)"/>
<path d="M0 0 C2.375 -0.125 2.375 -0.125 5 0 C5.66 0.66 6.32 1.32 7 2 C6.81511956 4.86564686 6.20773139 5.81237165 4.0625 7.75 C2 9 2 9 0 9 C0 6.03 0 3.06 0 0 Z " fill="#0E1010" transform="translate(317,303)"/>
<path d="M0 0 C0.66 0 1.32 0 2 0 C2.90413673 3.83724172 3.10576898 7.37502274 3.0625 11.3125 C3.05347656 12.38113281 3.04445313 13.44976562 3.03515625 14.55078125 C3.02355469 15.35902344 3.01195312 16.16726562 3 17 C2.01 17.33 1.02 17.66 0 18 C0 12.06 0 6.12 0 0 Z " fill="#605F5F" transform="translate(368,53)"/>
<path d="M0 0 C6.08233706 0.67581523 12.01314152 1.73638028 18 3 C18 3.66 18 4.32 18 5 C11.85244834 5.335321 6.61879081 4.68029846 1 2 C0.67 1.34 0.34 0.68 0 0 Z " fill="#555555" transform="translate(182,423)"/>
<path d="M0 0 C5 1.66666667 10 3.33333333 15 5 C14.67 5.99 14.34 6.98 14 8 C8.53262809 6.25192871 3.24175152 4.34205919 -2 2 C-1.34 1.34 -0.68 0.68 0 0 Z " fill="#686767" transform="translate(169,417)"/>
<path d="M0 0 C0.33 0 0.66 0 1 0 C2.91318843 7.2890898 3.04819354 13.54932699 2 21 C1.67 21 1.34 21 1 21 C0.6377756 18.06328811 0.28491613 15.12596806 -0.0625 12.1875 C-0.16626953 11.35412109 -0.27003906 10.52074219 -0.37695312 9.66210938 C-0.47041016 8.85966797 -0.56386719 8.05722656 -0.66015625 7.23046875 C-0.74918213 6.49207764 -0.83820801 5.75368652 -0.92993164 4.99291992 C-1 3 -1 3 0 0 Z " fill="#605F5F" transform="translate(436,224)"/>
<path d="M0 0 C0 3 0 3 -1.37695312 4.7175293 C-2.00537109 5.33023682 -2.63378906 5.94294434 -3.28125 6.57421875 C-3.95800781 7.24130859 -4.63476562 7.90839844 -5.33203125 8.59570312 C-6.04746094 9.28599609 -6.76289063 9.97628906 -7.5 10.6875 C-8.57314453 11.7403418 -8.57314453 11.7403418 -9.66796875 12.81445312 C-11.43879577 14.54986361 -13.21623456 16.2779073 -15 18 C-15.66 17.67 -16.32 17.34 -17 17 C-16.04882866 15.8274869 -15.08882991 14.66212985 -14.125 13.5 C-13.59132812 12.8503125 -13.05765625 12.200625 -12.5078125 11.53125 C-11.76144531 10.77328125 -11.76144531 10.77328125 -11 10 C-10.34 10 -9.68 10 -9 10 C-8.67 9.01 -8.34 8.02 -8 7 C-7.34 7 -6.68 7 -6 7 C-5.67 6.01 -5.34 5.02 -5 4 C-3.37667033 2.61423077 -1.71275535 1.27358732 0 0 Z " fill="#71BCC3" transform="translate(143,130)"/>
<path d="M0 0 C1.2065625 0.0309375 1.2065625 0.0309375 2.4375 0.0625 C2.7675 1.7125 3.0975 3.3625 3.4375 5.0625 C1.4575 5.3925 -0.5225 5.7225 -2.5625 6.0625 C-2.94468767 4.40635343 -3.27645102 2.73792976 -3.5625 1.0625 C-2.5625 0.0625 -2.5625 0.0625 0 0 Z " fill="#0F1212" transform="translate(257.5625,293.9375)"/>
<path d="M0 0 C2.125 0.9375 2.125 0.9375 4 2 C4 2.66 4 3.32 4 4 C1.97900975 5.32627485 -0.12191283 6.44061281 -2.25 7.5859375 C-2.8275 8.05257812 -3.405 8.51921875 -4 9 C-4 10.32 -4 11.64 -4 13 C-4.66 13 -5.32 13 -6 13 C-6.25 10.1875 -6.25 10.1875 -6 7 C-4 5.3125 -4 5.3125 -2 4 C-2 3.01 -2 2.02 -2 1 C-1.34 0.67 -0.68 0.34 0 0 Z " fill="#F4C751" transform="translate(154,85)"/>
<path d="M0 0 C2.125 0.375 2.125 0.375 4 1 C3.8125 3.375 3.8125 3.375 3 6 C0.4375 7.3125 0.4375 7.3125 -2 8 C-2.125 5.125 -2.125 5.125 -2 2 C-1.34 1.34 -0.68 0.68 0 0 Z " fill="#DAD9D9" transform="translate(314,305)"/>
<path d="M0 0 C0.66 0.33 1.32 0.66 2 1 C0.36041242 6.23272633 -1.38952035 11.15196636 -4 16 C-4.66 16 -5.32 16 -6 16 C-5.37183502 12.05050296 -4.1354471 8.80107972 -2.4375 5.1875 C-1.98246094 4.21167969 -1.52742188 3.23585938 -1.05859375 2.23046875 C-0.70925781 1.49441406 -0.35992187 0.75835937 0 0 Z " fill="#919090" transform="translate(443,300)"/>
<path d="M0 0 C0.33 0 0.66 0 1 0 C2.0748291 6.27467799 1.88341198 10.90660831 0 17 C-2 15 -2 15 -2.01171875 13.046875 C-1.90472656 12.28890625 -1.79773438 11.5309375 -1.6875 10.75 C-1.57921875 9.95207031 -1.4709375 9.15414063 -1.359375 8.33203125 C-0.93062763 5.54983364 -0.49733464 2.77086445 0 0 Z " fill="#696969" transform="translate(436,277)"/>
<path d="M0 0 C5.28 0.33 10.56 0.66 16 1 C15.67 1.66 15.34 2.32 15 3 C9.87416389 3.10251672 5.05002222 3.03590199 0 2 C0 1.34 0 0.68 0 0 Z " fill="#525353" transform="translate(51,248)"/>
<path d="M0 0 C3.34072178 1.38779449 4.90199421 2.81588196 6.8125 5.875 C7.25207031 6.55304687 7.69164062 7.23109375 8.14453125 7.9296875 C9.16843185 10.40762047 8.90457722 11.52489914 8 14 C7.03980636 12.41779413 6.08192202 10.83418669 5.125 9.25 C4.59132813 8.36828125 4.05765625 7.4865625 3.5078125 6.578125 C2.24403334 4.41725907 1.08501165 2.25429605 0 0 Z " fill="#807F7F" transform="translate(363,32)"/>
<path d="M0 0 C3 1 3 1 4.75 3.75 C6.06883276 7.17896517 6.10867421 8.57318882 5 12 C0 4.5 0 4.5 0 0 Z " fill="#646464" transform="translate(427,203)"/>
<path d="M0 0 C0.99 0.33 1.98 0.66 3 1 C2.67 2.32 2.34 3.64 2 5 C-1.69541586 5.95024979 -4.30458414 5.95024979 -8 5 C-8 4.67 -8 4.34 -8 4 C-7.05125 3.896875 -6.1025 3.79375 -5.125 3.6875 C-1.70892499 3.31460705 -1.70892499 3.31460705 0 0 Z " fill="#2D2E2E" transform="translate(280,283)"/>
<path d="M0 0 C0.99 0.33 1.98 0.66 3 1 C-0.27301919 3.96909598 -2.38065762 4.34354794 -6.75 4.1875 C-8.22726563 4.14689453 -8.22726563 4.14689453 -9.734375 4.10546875 C-10.85585938 4.05326172 -10.85585938 4.05326172 -12 4 C-12 3.67 -12 3.34 -12 3 C-11.30132812 2.86722656 -10.60265625 2.73445312 -9.8828125 2.59765625 C-8.51769531 2.33275391 -8.51769531 2.33275391 -7.125 2.0625 C-6.22007813 1.88847656 -5.31515625 1.71445313 -4.3828125 1.53515625 C-2.00043683 1.10036299 -2.00043683 1.10036299 0 0 Z " fill="#727170" transform="translate(71,252)"/>
<path d="M0 0 C0.66 0 1.32 0 2 0 C0.6062718 4.43458973 -1.60582235 6.87378374 -5 10 C-5 6.65580848 -4.52480606 5.93159679 -2.625 3.3125 C-2.18414062 2.68988281 -1.74328125 2.06726563 -1.2890625 1.42578125 C-0.86367187 0.95527344 -0.43828125 0.48476563 0 0 Z " fill="#393938" transform="translate(195,346)"/>
<path d="M0 0 C-0.5590888 3.24271506 -1.4132178 4.93057424 -4 7 C-4.66 7 -5.32 7 -6 7 C-5.37162381 3.35541809 -4.14650034 0 0 0 Z " fill="#6C6C6C" transform="translate(79,239)"/>
<path d="M0 0 C0 0.33 0 0.66 0 1 C-1.79005941 1.36220266 -3.58212057 1.71452469 -5.375 2.0625 C-6.87160156 2.35833984 -6.87160156 2.35833984 -8.3984375 2.66015625 C-11 3 -11 3 -13 2 C-8.11922548 -0.44038726 -5.47332932 -1.46845421 0 0 Z " fill="#353535" transform="translate(237,293)"/>
<path d="M0 0 C3.16115776 1.36983503 3.9927092 1.9890638 6 5 C5.34 5.66 4.68 6.32 4 7 C2 5.1875 2 5.1875 0 3 C0 2.01 0 1.02 0 0 Z " fill="#707070" transform="translate(133,391)"/>
<path d="M0 0 C3.25543229 0.34879632 4.01873107 1.02133261 6.25 3.5625 C6.8275 4.366875 7.405 5.17125 8 6 C5 6 5 6 3.61328125 4.6875 C2.40885417 3.125 1.20442708 1.5625 0 0 Z " fill="#8E8C8D" transform="translate(141,411)"/>
<path d="M0 0 C2 1 4 2 6 3 C5.67 4.32 5.34 5.64 5 7 C2.5 5.1875 2.5 5.1875 0 3 C0 2.01 0 1.02 0 0 Z " fill="#505050" transform="translate(138,396)"/>
<path d="M0 0 C5.75 0.875 5.75 0.875 8 2 C8 2.66 8 3.32 8 4 C4.31245243 3.50168276 2.39509338 2.89932357 0 0 Z " fill="#434343" transform="translate(161,414)"/>
<path d="M0 0 C6.75 0.75 6.75 0.75 9 3 C7.3125 3.75 7.3125 3.75 5 4 C2.25 2.0625 2.25 2.0625 0 0 Z " fill="#6F6F70" transform="translate(155,411)"/>
<path d="M0 0 C0.66 0.66 1.32 1.32 2 2 C1.625 4.625 1.625 4.625 1 7 C0.01 7 -0.98 7 -2 7 C-1.34 4.69 -0.68 2.38 0 0 Z " fill="#797777" transform="translate(429,304)"/>
</svg>
